<svg xmlns="http://www.w3.org/2000/svg" xmlns:xlink="http://www.w3.org/1999/xlink" version="1.1" width="256" height="256" viewBox="0 0 256 256" xml:space="preserve">
<desc>Created with Fabric.js 1.7.22</desc>
<defs>
</defs>
<g transform="translate(128 128) scale(0.72 0.72)" style="">
	<g style="stroke: none; stroke-width: 0; stroke-dasharray: none; stroke-linecap: butt; stroke-linejoin: miter; stroke-miterlimit: 10; fill: none; fill-rule: nonzero; opacity: 1;" transform="translate(-175.05 -175.05000000000004) scale(3.89 3.89)" >
	<path d="M 76.947 6.095 H 13.053 C 6.407 6.095 1 11.502 1 18.147 v 35.781 c 0 6.646 5.407 12.053 12.053 12.053 h 5.386 v 15.076 c 0 1.155 0.659 2.156 1.72 2.612 c 0.371 0.16 0.757 0.238 1.137 0.238 c 0.707 0 1.396 -0.269 1.941 -0.785 l 18.101 -17.142 h 35.608 C 83.593 65.981 89 60.574 89 53.928 V 18.147 C 89 11.502 83.593 6.095 76.947 6.095 z" style="stroke: none; stroke-width: 1; stroke-dasharray: none; stroke-linecap: butt; stroke-linejoin: miter; stroke-miterlimit: 10; fill: rgb(234,0,22); fill-rule: nonzero; opacity: 1;" transform=" matrix(1 0 0 1 0 0) " stroke-linecap="round" />
	<path d="M 45.437 53.962 C 45.3 54.031 45.15 54.065 45 54.065 s -0.3 -0.034 -0.437 -0.103 c -4.347 -2.173 -8.054 -4.777 -11.018 -7.739 c -0.719 -0.719 -1.403 -1.469 -2.033 -2.229 c -0.788 -0.953 -1.504 -1.94 -2.131 -2.935 c -4.368 -6.933 -4.492 -14.744 -0.3 -18.994 c 3.688 -3.739 9.608 -3.764 15.92 -0.095 c 5.294 -3.084 10.245 -3.583 13.989 -1.405 c 3.279 1.909 5.151 5.754 5.007 10.287 C 63.78 37.647 58.792 47.285 45.437 53.962 z" style="stroke: none; stroke-width: 1; stroke-dasharray: none; stroke-linecap: butt; stroke-linejoin: miter; stroke-miterlimit: 10; fill: rgb(255,255,255); fill-rule: nonzero; opacity: 1;" transform=" matrix(1 0 0 1 0 0) " stroke-linecap="round" />
	<path d="M 22.917 79.581 V 64.015 h -5.561 c -6.862 0 -12.444 -5.583 -12.444 -12.445 V 14.628 c 0 -2.545 0.771 -4.912 2.087 -6.885 C 3.417 9.835 1 13.71 1 18.147 v 35.781 c 0 6.646 5.407 12.053 12.053 12.053 h 5.386 v 15.076 c 0 1.155 0.659 2.156 1.72 2.612 c 0.371 0.16 0.757 0.238 1.137 0.238 c 0.707 0 1.396 -0.269 1.941 -0.785 l 1.091 -1.033 C 23.449 81.563 22.917 80.635 22.917 79.581 z" style="stroke: none; stroke-width: 1; stroke-dasharray: none; stroke-linecap: butt; stroke-linejoin: miter; stroke-miterlimit: 10; fill: rgb(181,0,17); fill-rule: nonzero; opacity: 1;" transform=" matrix(1 0 0 1 0 0) " stroke-linecap="round" />
	<path d="M 21.296 84.908 c -0.525 0 -1.041 -0.107 -1.534 -0.32 c -1.433 -0.616 -2.324 -1.969 -2.324 -3.53 V 66.981 h -4.386 C 5.855 66.981 0 61.126 0 53.928 v -35.78 C 0 10.95 5.855 5.095 13.053 5.095 h 63.895 C 84.145 5.095 90 10.95 90 18.147 v 35.78 c 0 7.198 -5.855 13.054 -13.053 13.054 h -35.21 L 23.925 83.85 C 23.204 84.532 22.27 84.908 21.296 84.908 z M 13.053 7.095 C 6.958 7.095 2 12.053 2 18.147 v 35.78 c 0 6.095 4.958 11.054 11.053 11.054 h 6.386 v 16.076 c 0 0.76 0.417 1.394 1.115 1.693 c 0.685 0.297 1.458 0.156 1.996 -0.354 l 18.39 -17.415 h 36.007 C 83.042 64.981 88 60.022 88 53.928 v -35.78 c 0 -6.095 -4.958 -11.053 -11.053 -11.053 H 13.053 z" style="stroke: none; stroke-width: 1; stroke-dasharray: none; stroke-linecap: butt; stroke-linejoin: miter; stroke-miterlimit: 10; fill: rgb(0,0,0); fill-rule: nonzero; opacity: 1;" transform=" matrix(1 0 0 1 0 0) " stroke-linecap="round" />
	<path d="M 45 55.065 c -0.307 0 -0.614 -0.072 -0.887 -0.21 c -4.441 -2.22 -8.235 -4.887 -11.275 -7.925 c -0.74 -0.74 -1.445 -1.513 -2.096 -2.298 c -0.814 -0.986 -1.557 -2.008 -2.208 -3.04 c -4.617 -7.328 -4.686 -15.646 -0.166 -20.229 c 3.91 -3.965 10.097 -4.156 16.631 -0.542 c 5.425 -3.009 10.553 -3.411 14.492 -1.12 c 3.604 2.097 5.661 6.278 5.504 11.184 c -0.225 7.082 -5.362 17.097 -19.108 23.97 l 0 0 C 45.614 54.993 45.307 55.065 45 55.065 z M 45.008 53.066 c 0 0.001 0.001 0.001 0.001 0.001 l 0.001 -0.001 H 45.008 z M 36.137 20.254 c -2.504 0 -4.691 0.837 -6.345 2.514 c -3.864 3.918 -3.685 11.22 0.435 17.758 c 0.604 0.959 1.296 1.912 2.056 2.831 c 0.61 0.737 1.273 1.463 1.969 2.16 C 37.137 48.4 40.753 50.938 45 53.063 c 12.954 -6.479 17.79 -15.737 17.997 -22.241 c 0.132 -4.159 -1.555 -7.67 -4.512 -9.392 c -3.411 -1.984 -8.021 -1.486 -12.982 1.405 L 45 23.128 l -0.503 -0.292 C 41.538 21.115 38.675 20.254 36.137 20.254 z" style="stroke: none; stroke-width: 1; stroke-dasharray: none; stroke-linecap: butt; stroke-linejoin: miter; stroke-miterlimit: 10; fill: rgb(0,0,0); fill-rule: nonzero; opacity: 1;" transform=" matrix(1 0 0 1 0 0) " stroke-linecap="round" />
</g>
</g>
</svg>